<mxfile host="app.diagrams.net" agent="Mozilla/5.0 (X11; Linux x86_64) AppleWebKit/537.36 (KHTML, like Gecko) Chrome/126.0.0.0 Safari/537.36" version="24.7.16">
  <diagram name="Page-1" id="2c0d36ab-eaac-3732-788b-9136903baeff">
    <mxGraphModel dx="1756" dy="916" grid="1" gridSize="10" guides="1" tooltips="1" connect="1" arrows="1" fold="1" page="1" pageScale="1.5" pageWidth="1169" pageHeight="827" background="none" math="0" shadow="0">
      <root>
        <mxCell id="0" />
        <mxCell id="1" parent="0" />
        <mxCell id="oDPdmUQwLlRHnJGlkrta-163" value="" style="fillColor=#dae8fc;strokeColor=#6c8ebf;opacity=30;" vertex="1" parent="1">
          <mxGeometry x="590" width="290" height="550" as="geometry" />
        </mxCell>
        <mxCell id="oDPdmUQwLlRHnJGlkrta-158" value="" style="fillColor=#dae8fc;strokeColor=#6c8ebf;opacity=30;" vertex="1" parent="1">
          <mxGeometry x="290" width="300" height="230" as="geometry" />
        </mxCell>
        <mxCell id="oDPdmUQwLlRHnJGlkrta-157" value="" style="fillColor=#ffe6cc;strokeColor=#d79b00;opacity=30;" vertex="1" parent="1">
          <mxGeometry x="290" y="890" width="300" height="340" as="geometry" />
        </mxCell>
        <mxCell id="110" value="" style="fillColor=#008a00;strokeColor=#005700;opacity=30;fontColor=#ffffff;" parent="1" vertex="1">
          <mxGeometry x="290" y="230" width="300" height="660" as="geometry" />
        </mxCell>
        <mxCell id="2" value="Inicio" style="rounded=1;fillColor=#23445D;gradientColor=none;strokeColor=none;fontColor=#FFFFFF;fontStyle=1;fontFamily=Tahoma;fontSize=14" parent="1" vertex="1">
          <mxGeometry x="10" y="550" width="190" height="80" as="geometry" />
        </mxCell>
        <mxCell id="4" value="Panel administrativo" style="rounded=1;fillColor=#23445D;gradientColor=none;strokeColor=none;fontColor=#FFFFFF;fontStyle=1;fontFamily=Tahoma;fontSize=14" parent="1" vertex="1">
          <mxGeometry x="370" y="80" width="170" height="70" as="geometry" />
        </mxCell>
        <mxCell id="10" value="Autenticación" style="rounded=1;fillColor=#23445D;gradientColor=none;strokeColor=none;fontColor=#FFFFFF;fontStyle=1;fontFamily=Tahoma;fontSize=14" parent="1" vertex="1">
          <mxGeometry x="399" y="300" width="130" height="60" as="geometry" />
        </mxCell>
        <mxCell id="12" value="Registro" style="rounded=1;fillColor=#23445D;gradientColor=none;strokeColor=none;fontColor=#FFFFFF;fontStyle=1;fontFamily=Tahoma;fontSize=14" parent="1" vertex="1">
          <mxGeometry x="399" y="400" width="130" height="60" as="geometry" />
        </mxCell>
        <mxCell id="16" value="Reserva" style="rounded=1;fillColor=#23445D;gradientColor=none;strokeColor=none;fontColor=#FFFFFF;fontStyle=1;fontFamily=Tahoma;fontSize=14" parent="1" vertex="1">
          <mxGeometry x="400" y="1040" width="130" height="60" as="geometry" />
        </mxCell>
        <mxCell id="17" value="Trabajadores" style="rounded=1;fillColor=#23445D;gradientColor=none;strokeColor=none;fontColor=#FFFFFF;fontStyle=1;fontFamily=Tahoma;fontSize=14" parent="1" vertex="1">
          <mxGeometry x="400" y="710" width="130" height="60" as="geometry" />
        </mxCell>
        <mxCell id="59" value="" style="edgeStyle=elbowEdgeStyle;strokeWidth=2;rounded=0;exitX=1;exitY=0.5;exitDx=0;exitDy=0;entryX=0;entryY=0.5;entryDx=0;entryDy=0;" parent="1" source="2" target="12" edge="1">
          <mxGeometry x="347" y="225.5" width="100" height="100" as="geometry">
            <mxPoint x="590" y="400" as="sourcePoint" />
            <mxPoint x="295" y="650" as="targetPoint" />
          </mxGeometry>
        </mxCell>
        <mxCell id="oDPdmUQwLlRHnJGlkrta-130" value="Citas" style="rounded=1;fillColor=#23445D;gradientColor=none;strokeColor=none;fontColor=#FFFFFF;fontStyle=1;fontFamily=Tahoma;fontSize=14" vertex="1" parent="1">
          <mxGeometry x="399" y="1120" width="130" height="60" as="geometry" />
        </mxCell>
        <mxCell id="oDPdmUQwLlRHnJGlkrta-134" value="Blog" style="rounded=1;fillColor=#23445D;gradientColor=none;strokeColor=none;fontColor=#FFFFFF;fontStyle=1;fontFamily=Tahoma;fontSize=14" vertex="1" parent="1">
          <mxGeometry x="400" y="610" width="130" height="60" as="geometry" />
        </mxCell>
        <mxCell id="oDPdmUQwLlRHnJGlkrta-135" value="Servicios" style="rounded=1;fillColor=#23445D;gradientColor=none;strokeColor=none;fontColor=#FFFFFF;fontStyle=1;fontFamily=Tahoma;fontSize=14" vertex="1" parent="1">
          <mxGeometry x="399" y="510" width="130" height="60" as="geometry" />
        </mxCell>
        <mxCell id="oDPdmUQwLlRHnJGlkrta-136" value="Nosotros" style="rounded=1;fillColor=#23445D;gradientColor=none;strokeColor=none;fontColor=#FFFFFF;fontStyle=1;fontFamily=Tahoma;fontSize=14" vertex="1" parent="1">
          <mxGeometry x="400" y="800" width="130" height="60" as="geometry" />
        </mxCell>
        <mxCell id="oDPdmUQwLlRHnJGlkrta-142" value="Perfil" style="rounded=1;fillColor=#23445D;gradientColor=none;strokeColor=none;fontColor=#FFFFFF;fontStyle=1;fontFamily=Tahoma;fontSize=14" vertex="1" parent="1">
          <mxGeometry x="400" y="950" width="130" height="60" as="geometry" />
        </mxCell>
        <mxCell id="oDPdmUQwLlRHnJGlkrta-145" value="" style="edgeStyle=elbowEdgeStyle;strokeWidth=2;rounded=0;exitX=1;exitY=0.5;exitDx=0;exitDy=0;entryX=0;entryY=0.5;entryDx=0;entryDy=0;" edge="1" parent="1" source="2" target="10">
          <mxGeometry x="347" y="225.5" width="100" height="100" as="geometry">
            <mxPoint x="210" y="600" as="sourcePoint" />
            <mxPoint x="410" y="310" as="targetPoint" />
          </mxGeometry>
        </mxCell>
        <mxCell id="oDPdmUQwLlRHnJGlkrta-146" value="" style="edgeStyle=elbowEdgeStyle;strokeWidth=2;rounded=0;exitX=1;exitY=0.5;exitDx=0;exitDy=0;entryX=0;entryY=0.5;entryDx=0;entryDy=0;" edge="1" parent="1" source="2" target="17">
          <mxGeometry x="347" y="225.5" width="100" height="100" as="geometry">
            <mxPoint x="210" y="600" as="sourcePoint" />
            <mxPoint x="410" y="140" as="targetPoint" />
          </mxGeometry>
        </mxCell>
        <mxCell id="oDPdmUQwLlRHnJGlkrta-147" value="" style="edgeStyle=elbowEdgeStyle;strokeWidth=2;rounded=0;exitX=1;exitY=0.5;exitDx=0;exitDy=0;entryX=0;entryY=0.5;entryDx=0;entryDy=0;" edge="1" parent="1" source="2" target="16">
          <mxGeometry x="347" y="225.5" width="100" height="100" as="geometry">
            <mxPoint x="210" y="600" as="sourcePoint" />
            <mxPoint x="410" y="820" as="targetPoint" />
          </mxGeometry>
        </mxCell>
        <mxCell id="oDPdmUQwLlRHnJGlkrta-148" value="" style="edgeStyle=elbowEdgeStyle;strokeWidth=2;rounded=0;exitX=1;exitY=0.5;exitDx=0;exitDy=0;entryX=0;entryY=0.5;entryDx=0;entryDy=0;" edge="1" parent="1" source="2" target="oDPdmUQwLlRHnJGlkrta-134">
          <mxGeometry x="347" y="225.5" width="100" height="100" as="geometry">
            <mxPoint x="220" y="610" as="sourcePoint" />
            <mxPoint x="420" y="830" as="targetPoint" />
          </mxGeometry>
        </mxCell>
        <mxCell id="oDPdmUQwLlRHnJGlkrta-149" value="" style="edgeStyle=elbowEdgeStyle;strokeWidth=2;rounded=0;exitX=1;exitY=0.5;exitDx=0;exitDy=0;entryX=0;entryY=0.5;entryDx=0;entryDy=0;" edge="1" parent="1" source="2" target="oDPdmUQwLlRHnJGlkrta-136">
          <mxGeometry x="347" y="225.5" width="100" height="100" as="geometry">
            <mxPoint x="230" y="620" as="sourcePoint" />
            <mxPoint x="430" y="840" as="targetPoint" />
          </mxGeometry>
        </mxCell>
        <mxCell id="oDPdmUQwLlRHnJGlkrta-150" value="" style="edgeStyle=elbowEdgeStyle;strokeWidth=2;rounded=0;exitX=1;exitY=0.5;exitDx=0;exitDy=0;entryX=0;entryY=0.5;entryDx=0;entryDy=0;" edge="1" parent="1" source="2" target="oDPdmUQwLlRHnJGlkrta-135">
          <mxGeometry x="347" y="225.5" width="100" height="100" as="geometry">
            <mxPoint x="240" y="630" as="sourcePoint" />
            <mxPoint x="440" y="850" as="targetPoint" />
          </mxGeometry>
        </mxCell>
        <mxCell id="oDPdmUQwLlRHnJGlkrta-151" value="" style="edgeStyle=elbowEdgeStyle;strokeWidth=2;rounded=0;entryX=0;entryY=0.5;entryDx=0;entryDy=0;" edge="1" parent="1" target="oDPdmUQwLlRHnJGlkrta-130">
          <mxGeometry x="347" y="225.5" width="100" height="100" as="geometry">
            <mxPoint x="201" y="590" as="sourcePoint" />
            <mxPoint x="450" y="860" as="targetPoint" />
          </mxGeometry>
        </mxCell>
        <mxCell id="oDPdmUQwLlRHnJGlkrta-153" value="" style="edgeStyle=elbowEdgeStyle;strokeWidth=2;rounded=0;exitX=1;exitY=0.5;exitDx=0;exitDy=0;entryX=0;entryY=0.5;entryDx=0;entryDy=0;" edge="1" parent="1" source="2" target="oDPdmUQwLlRHnJGlkrta-142">
          <mxGeometry x="347" y="225.5" width="100" height="100" as="geometry">
            <mxPoint x="210" y="600" as="sourcePoint" />
            <mxPoint x="410" y="710" as="targetPoint" />
          </mxGeometry>
        </mxCell>
        <mxCell id="oDPdmUQwLlRHnJGlkrta-155" value="" style="edgeStyle=elbowEdgeStyle;strokeWidth=2;rounded=0;exitX=1;exitY=0.5;exitDx=0;exitDy=0;entryX=0;entryY=0.5;entryDx=0;entryDy=0;" edge="1" parent="1" source="2" target="4">
          <mxGeometry x="347" y="225.5" width="100" height="100" as="geometry">
            <mxPoint x="210" y="600" as="sourcePoint" />
            <mxPoint x="410" y="140" as="targetPoint" />
            <Array as="points">
              <mxPoint x="300" y="350" />
            </Array>
          </mxGeometry>
        </mxCell>
        <mxCell id="oDPdmUQwLlRHnJGlkrta-156" value="" style="fillColor=#008a00;strokeColor=#005700;opacity=30;fontColor=#ffffff;" vertex="1" parent="1">
          <mxGeometry width="290" height="1230" as="geometry" />
        </mxCell>
        <mxCell id="oDPdmUQwLlRHnJGlkrta-159" value="Gestión de &#xa;trabajadores" style="rounded=1;fillColor=#23445D;gradientColor=none;strokeColor=none;fontColor=#FFFFFF;fontStyle=1;fontFamily=Tahoma;fontSize=14" vertex="1" parent="1">
          <mxGeometry x="680" y="190" width="130" height="60" as="geometry" />
        </mxCell>
        <mxCell id="oDPdmUQwLlRHnJGlkrta-160" value="Gestión del blog" style="rounded=1;fillColor=#23445D;gradientColor=none;strokeColor=none;fontColor=#FFFFFF;fontStyle=1;fontFamily=Tahoma;fontSize=14" vertex="1" parent="1">
          <mxGeometry x="680" y="100" width="130" height="60" as="geometry" />
        </mxCell>
        <mxCell id="oDPdmUQwLlRHnJGlkrta-161" value="Gestión de servicios" style="rounded=1;fillColor=#23445D;gradientColor=none;strokeColor=none;fontColor=#FFFFFF;fontStyle=1;fontFamily=Tahoma;fontSize=14" vertex="1" parent="1">
          <mxGeometry x="680" y="10" width="130" height="60" as="geometry" />
        </mxCell>
        <mxCell id="oDPdmUQwLlRHnJGlkrta-162" value="Gestión de &#xa;disponibilidad" style="rounded=1;fillColor=#23445D;gradientColor=none;strokeColor=none;fontColor=#FFFFFF;fontStyle=1;fontFamily=Tahoma;fontSize=14" vertex="1" parent="1">
          <mxGeometry x="680" y="280" width="130" height="60" as="geometry" />
        </mxCell>
        <mxCell id="oDPdmUQwLlRHnJGlkrta-164" value="" style="edgeStyle=elbowEdgeStyle;strokeWidth=2;rounded=0;exitX=1;exitY=0.5;exitDx=0;exitDy=0;entryX=0;entryY=0.5;entryDx=0;entryDy=0;" edge="1" parent="1" source="4" target="oDPdmUQwLlRHnJGlkrta-160">
          <mxGeometry x="347" y="225.5" width="100" height="100" as="geometry">
            <mxPoint x="210" y="600" as="sourcePoint" />
            <mxPoint x="409" y="125" as="targetPoint" />
          </mxGeometry>
        </mxCell>
        <mxCell id="oDPdmUQwLlRHnJGlkrta-165" value="" style="edgeStyle=elbowEdgeStyle;strokeWidth=2;rounded=0;exitX=1;exitY=0.5;exitDx=0;exitDy=0;entryX=0;entryY=0.5;entryDx=0;entryDy=0;" edge="1" parent="1" source="4" target="oDPdmUQwLlRHnJGlkrta-169">
          <mxGeometry x="347" y="225.5" width="100" height="100" as="geometry">
            <mxPoint x="579" y="125" as="sourcePoint" />
            <mxPoint x="690" y="140" as="targetPoint" />
          </mxGeometry>
        </mxCell>
        <mxCell id="oDPdmUQwLlRHnJGlkrta-166" value="" style="edgeStyle=elbowEdgeStyle;strokeWidth=2;rounded=0;exitX=1;exitY=0.5;exitDx=0;exitDy=0;entryX=0;entryY=0.5;entryDx=0;entryDy=0;" edge="1" parent="1" source="4" target="oDPdmUQwLlRHnJGlkrta-162">
          <mxGeometry x="347" y="225.5" width="100" height="100" as="geometry">
            <mxPoint x="589" y="135" as="sourcePoint" />
            <mxPoint x="700" y="150" as="targetPoint" />
          </mxGeometry>
        </mxCell>
        <mxCell id="oDPdmUQwLlRHnJGlkrta-167" value="" style="edgeStyle=elbowEdgeStyle;strokeWidth=2;rounded=0;exitX=1;exitY=0.5;exitDx=0;exitDy=0;entryX=0;entryY=0.5;entryDx=0;entryDy=0;" edge="1" parent="1" source="4" target="oDPdmUQwLlRHnJGlkrta-161">
          <mxGeometry x="347" y="225.5" width="100" height="100" as="geometry">
            <mxPoint x="599" y="145" as="sourcePoint" />
            <mxPoint x="710" y="160" as="targetPoint" />
          </mxGeometry>
        </mxCell>
        <mxCell id="oDPdmUQwLlRHnJGlkrta-168" value="" style="edgeStyle=elbowEdgeStyle;strokeWidth=2;rounded=0;exitX=1;exitY=0.5;exitDx=0;exitDy=0;entryX=0;entryY=0.5;entryDx=0;entryDy=0;" edge="1" parent="1" source="4" target="oDPdmUQwLlRHnJGlkrta-159">
          <mxGeometry x="347" y="225.5" width="100" height="100" as="geometry">
            <mxPoint x="609" y="155" as="sourcePoint" />
            <mxPoint x="720" y="170" as="targetPoint" />
          </mxGeometry>
        </mxCell>
        <mxCell id="oDPdmUQwLlRHnJGlkrta-169" value="Administrar&#xa;opiniones" style="rounded=1;fillColor=#23445D;gradientColor=none;strokeColor=none;fontColor=#FFFFFF;fontStyle=1;fontFamily=Tahoma;fontSize=14" vertex="1" parent="1">
          <mxGeometry x="680" y="360" width="130" height="60" as="geometry" />
        </mxCell>
        <mxCell id="oDPdmUQwLlRHnJGlkrta-170" value="Administrar&#xa;citas" style="rounded=1;fillColor=#23445D;gradientColor=none;strokeColor=none;fontColor=#FFFFFF;fontStyle=1;fontFamily=Tahoma;fontSize=14" vertex="1" parent="1">
          <mxGeometry x="680" y="450" width="130" height="60" as="geometry" />
        </mxCell>
        <mxCell id="oDPdmUQwLlRHnJGlkrta-171" value="" style="edgeStyle=elbowEdgeStyle;strokeWidth=2;rounded=0;exitX=1;exitY=0.5;exitDx=0;exitDy=0;entryX=0;entryY=0.5;entryDx=0;entryDy=0;" edge="1" parent="1" source="4" target="oDPdmUQwLlRHnJGlkrta-170">
          <mxGeometry x="347" y="225.5" width="100" height="100" as="geometry">
            <mxPoint x="579" y="125" as="sourcePoint" />
            <mxPoint x="690" y="230" as="targetPoint" />
          </mxGeometry>
        </mxCell>
      </root>
    </mxGraphModel>
  </diagram>
</mxfile>
